<svg xmlns="http://www.w3.org/2000/svg" viewBox="0 0 142 64">
    <style>
        .a { fill: #000000; }
        @media (prefers-color-scheme: dark) {
          .a { fill: #ffffff; }
        }
    </style>

    <g>
        <path class="a" d="M0,0H20.42877V61.64158h4.66951v1.51648H.33347V61.64158H4.91962V1.516H0Z" />
        <path class="a" d="M32.68564,58.6096Q27.34846,53.22312,27.34919,43.157q0-10.06074,5.7116-15.49373,5.71016-5.432,16.051-5.432,10.33773,0,15.42578,5.01055Q69.6225,32.25308,69.624,42.52651,69.624,63.999,48.44489,64,38.02064,64,32.68564,58.6096Zm20.929-12.04176V39.41033a57.79486,57.79486,0,0,0-.87584-11.916q-.87535-3.74542-4.04378-3.74714a4.16126,4.16126,0,0,0-2.96,1.05243,6.48776,6.48776,0,0,0-1.62614,3.495,64.70357,64.70357,0,0,0-.7503,11.5366v6.56814q0,9.18111.54189,11.03143a18.941,18.941,0,0,0,1.12545,3.032,3.54892,3.54892,0,0,0,3.58575,2.02164q3.252,0,4.25219-3.79071Q53.61486,56.00056,53.61461,46.56784Z" />
        <path class="a" d="M77.96259,58.6096q-5.3379-5.38648-5.33742-15.45262,0-10.06074,5.7116-15.49373,5.71161-5.432,16.051-5.432,10.33846,0,15.42675,5.01055,5.08344,5.01129,5.08538,15.28472Q114.89994,63.999,93.72087,64,83.29808,64,77.96259,58.6096Zm20.929-12.04176V39.41033a57.82133,57.82133,0,0,0-.87632-11.916q-.87536-3.74542-4.04427-3.74714a4.16,4.16,0,0,0-2.95952,1.05243,6.48414,6.48414,0,0,0-1.62566,3.495,64.70357,64.70357,0,0,0-.7503,11.5366v6.56814q0,9.18111.54092,11.03143a18.934,18.934,0,0,0,1.12642,3.032,3.54712,3.54712,0,0,0,3.58478,2.02164q3.25275,0,4.25268-3.79071Q98.892,56.00056,98.89156,46.56784Z" />
        <path class="a" d="M116.90172,0h20.42876V61.64158H142v1.51648H117.23518V61.64158h4.58615V1.516h-4.91961Z" />
    </g>
</svg>