<svg xmlns="http://www.w3.org/2000/svg" viewBox="0 0 142 181.60616">
    <style>
        .a { fill: #000000; }
        @media (prefers-color-scheme: dark) {
          .a { fill: #ffffff; }
        }
    </style>

    <path class="a" d="M4.91962,1.516H0V0H20.42877V61.6416h4.6695v1.51648H.3335V61.6416H4.91962ZM32.68567,58.60962q-5.33725-5.3865-5.33649-15.45264,0-10.06072,5.71161-15.49371,5.71014-5.432,16.051-5.432,10.33767,0,15.42578,5.01056Q69.62248,32.25306,69.624,42.5265,69.624,63.999,48.44489,64,38.02069,64,32.68567,58.60962ZM43.35858,39.83124v6.56811q0,9.18109.54187,11.03144a18.93828,18.93828,0,0,0,1.12549,3.032,3.54887,3.54887,0,0,0,3.58575,2.02167q3.252,0,4.25214-3.79071.751-2.69324.75079-12.12592v-7.1575a57.79352,57.79352,0,0,0-.87579-11.916q-.87543-3.74541-4.04382-3.74713a4.16106,4.16106,0,0,0-2.96,1.05242,6.48726,6.48726,0,0,0-1.62616,3.495A64.69988,64.69988,0,0,0,43.35858,39.83124ZM137.33051,61.6416V0H116.90173V1.516h4.91962V61.6416h-4.58618v1.51648H142V61.6416Zm-59.36792-3.032q-5.33792-5.3865-5.33741-15.4526,0-10.06071,5.7116-15.49371,5.71161-5.432,16.051-5.432,10.33839,0,15.42669,5.01056,5.08347,5.01123,5.08538,15.28473Q114.89989,63.999,93.721,64q-10.423,0-15.75841-5.39038ZM88.6355,39.83124v6.56811q0,9.18109.541,11.03144a18.93282,18.93282,0,0,0,1.12641,3.032,3.54716,3.54716,0,0,0,3.58477,2.02167q3.25276,0,4.25269-3.79071.75165-2.69324.75122-12.12592h.00006v-7.1575a57.81812,57.81812,0,0,0-.87634-11.916q-.87533-3.74541-4.04425-3.74713a4.1601,4.1601,0,0,0-2.95954,1.05242,6.48472,6.48472,0,0,0-1.62567,3.495A64.70833,64.70833,0,0,0,88.6355,39.83124Z" />
    <path class="a" d="M0,80.25H142V78H0Zm0,55.4873H142v-2.25H0Z" />
    <path class="a" d="M32.7168,175.23047a13.36634,13.36634,0,0,1-5.083-.88379,7.19068,7.19068,0,0,1-3.24707-2.41406l2.82129-2.61817a7.317,7.317,0,0,0,2.39746,1.751,7.48028,7.48028,0,0,0,3.14453.62891,4.9894,4.9894,0,0,0,2.34668-.459,1.50353,1.50353,0,0,0,.84961-1.41114,1.05742,1.05742,0,0,0-.57813-1.03711,5.844,5.844,0,0,0-1.59765-.459l-2.82227-.4414a11.65666,11.65666,0,0,1-2.21-.52734,5.79126,5.79126,0,0,1-1.76758-.96877,4.51762,4.51762,0,0,1-1.19043-1.49609,4.74953,4.74953,0,0,1-.4414-2.14258,5.07767,5.07767,0,0,1,2.10742-4.31738,9.76432,9.76432,0,0,1,5.916-1.56446,12.33256,12.33256,0,0,1,4.40332.69727,6.98233,6.98233,0,0,1,2.90723,1.98926l-2.5166,2.85546a6.39878,6.39878,0,0,0-2.00586-1.42773,6.8788,6.8788,0,0,0-2.958-.57813q-2.92383,0-2.92383,1.76758a1.08491,1.08491,0,0,0,.57813,1.07129,5.76441,5.76441,0,0,0,1.59766.459l2.78808.44238a11.73241,11.73241,0,0,1,2.21.52637,6.01022,6.01022,0,0,1,1.78516.96973,4.42257,4.42257,0,0,1,1.207,1.49609,4.758,4.758,0,0,1,.44141,2.1416,5.15168,5.15168,0,0,1-2.125,4.35157A9.87237,9.87237,0,0,1,32.7168,175.23047Zm19.27734,0a10.38785,10.38785,0,0,1-3.72266-.62891,7.48787,7.48787,0,0,1-2.78808-1.81933,8.05769,8.05769,0,0,1-1.751-2.88965,12.36164,12.36164,0,0,1,0-7.68457,8.07436,8.07436,0,0,1,1.751-2.88965,7.49987,7.49987,0,0,1,2.78808-1.81934,10.2878,10.2878,0,0,1,3.68848-.6289,8.21939,8.21939,0,0,1,4.6416,1.17285,7.58039,7.58039,0,0,1,2.669,3.11133l-3.876,2.1084a5.166,5.166,0,0,0-1.24121-1.7002,3.19768,3.19768,0,0,0-2.19336-.68066,3.46974,3.46974,0,0,0-2.66894,1.0039,3.8531,3.8531,0,0,0-.93457,2.73633v2.85645a3.85466,3.85466,0,0,0,.93457,2.73631,4.22275,4.22275,0,0,0,5.03222.32326,5.68183,5.68183,0,0,0,1.41114-1.76758l3.80761,2.17578a7.6575,7.6575,0,0,1-2.77051,3.11133A8.70027,8.70027,0,0,1,51.99414,175.23047Zm10.33594-25.56836H67.3623v10.8125h.20313a7.45023,7.45023,0,0,1,.748-1.39453,5.1228,5.1228,0,0,1,1.07129-1.13867,5.02915,5.02915,0,0,1,1.46191-.78223,5.74713,5.74713,0,0,1,1.88672-.28906,6.133,6.133,0,0,1,2.3125.4248,4.73688,4.73688,0,0,1,1.80175,1.27539,6.15492,6.15492,0,0,1,1.17285,2.07422,8.59043,8.59043,0,0,1,.42579,2.82129v11.35645H73.41406V164.14648q0-3.3999-2.958-3.40039a4.29111,4.29111,0,0,0-1.13964.15332,3.04878,3.04878,0,0,0-1.00293.47559,2.26221,2.26221,0,0,0-.95118,1.9209v11.52637H62.33008ZM89.835,175.23047q-4.41943,0-6.69726-2.44824a9.3926,9.3926,0,0,1-2.27832-6.66407,11.75017,11.75017,0,0,1,.59472-3.85937,8.29689,8.29689,0,0,1,1.7002-2.92383,7.20108,7.20108,0,0,1,2.68653-1.83594,9.54308,9.54308,0,0,1,3.55272-.6289,9.41885,9.41885,0,0,1,3.53614.6289,7.37005,7.37005,0,0,1,2.65136,1.78516,8.00193,8.00193,0,0,1,1.6836,2.80469,10.81793,10.81793,0,0,1,.59473,3.68945v1.49609h-12.002v.30567a3.66932,3.66932,0,0,0,1.05371,2.7373,4.23592,4.23592,0,0,0,3.09473,1.03711,5.65292,5.65292,0,0,0,2.68555-.5957,6.3569,6.3569,0,0,0,1.93847-1.58008l2.71972,2.958a8.49359,8.49359,0,0,1-2.85645,2.17578A10.401,10.401,0,0,1,89.835,175.23047Zm-.40723-14.75586a3.45,3.45,0,0,0-2.60156,1.00293,3.72752,3.72752,0,0,0-.96875,2.70312v.27149h7.07227v-.27149a3.79745,3.79745,0,0,0-.93554-2.7207,3.36663,3.36663,0,0,0-2.56646-.98535Zm22.81349,11.12012H112.003a6.79869,6.79869,0,0,1-1.88672,2.624,5.0089,5.0089,0,0,1-3.31543,1.01172,6.42716,6.42716,0,0,1-2.66894-.54395,5.40155,5.40155,0,0,1-2.07325-1.666,8.36007,8.36007,0,0,1-1.36035-2.85644,17.40432,17.40432,0,0,1,0-8.22754,8.36011,8.36011,0,0,1,1.36035-2.85645,5.41055,5.41055,0,0,1,2.07325-1.666,6.4273,6.4273,0,0,1,2.66894-.54394,5.866,5.866,0,0,1,1.87011.27441,4.87288,4.87288,0,0,1,2.53321,1.90332,8.56042,8.56042,0,0,1,.79883,1.458h.23828V149.66211h5.03222v25.16016h-5.03222Zm-3.26368-.3086a4.06214,4.06214,0,0,0,2.29493-.6416,2.25613,2.25613,0,0,0,.96875-2.02637v-5.13574a2.25617,2.25617,0,0,0-.96875-2.02637,4.0623,4.0623,0,0,0-2.29493-.6416,3.32294,3.32294,0,0,0-2.61815,1.03028,4.14086,4.14086,0,0,0-.918,2.85449v2.70215a4.13747,4.13747,0,0,0,.918,2.85449,3.31968,3.31968,0,0,0,2.61811,1.03027Z" />
    <path class="a" d="M84.87354,108.18789v-1.86527H75.818a4.71385,4.71385,0,0,0-.17007-.66088l3.08537-1.8052-.94834-1.576-3.0327,1.79318a4.92488,4.92488,0,0,0-.63407-.61652l4.14093-7.09875L78.7333,95.57l-1.57875-.9465-4.63683,7.89c-.2089-.0647-.41594-.12017-.62345-.16637v-3.4514H70.06736v3.42736a4.07075,4.07075,0,0,0-.66735.17655l-4.12015-7.08859-.47325-.78752-1.57688.9465,4.58415,7.86039a5.66375,5.66375,0,0,0-.6045.60543l-3.03315-1.795-.9465,1.57873,3.08445,1.80334a4.69342,4.69342,0,0,0-.17008.66182H57.12646v1.82737h9.01763a4.58936,4.58936,0,0,0,.17009.66088l-3.08445,1.8052.9465,1.576,3.029-1.7904a4.87987,4.87987,0,0,0,.41409.42888l-4.10813,7.20782-.47325.78844,1.57735.94558,4.5994-7.889a4.39375,4.39375,0,0,0,.85268.23385v3.42182h1.82692V112.0738a4.712,4.712,0,0,0,.90767-.27544l4.14833,7.10984.47233.78937,1.57688-.9465-4.604-7.89737a4.547,4.547,0,0,0,.40207-.41224l3.02621,1.7904.9465-1.57688-3.08445-1.8052a4.69364,4.69364,0,0,0,.17008-.66181Zm-16.9224-.97053A3.04886,3.04886,0,1,1,71,110.26668,3.04886,3.04886,0,0,1,67.95114,107.21736ZM71.89427,96.9798a.91537.91537,0,1,1-.91537-.91537A.91537.91537,0,0,1,71.89427,96.9798Zm-9.27644,4.32314a.91537.91537,0,1,1-1.25042.335A.91537.91537,0,0,1,62.61783,101.30294Zm-.89427,10.1952a.91537.91537,0,1,1-.33505,1.25042A.91536.91536,0,0,1,61.72356,111.49814Zm8.38217,5.87206a.91537.91537,0,1,1,.91537.91537A.91536.91536,0,0,1,70.10573,117.3702Zm9.27643-4.32314a.91537.91537,0,1,1,1.25042-.335A.91538.91538,0,0,1,79.38216,113.04706Zm.89428-10.1952a.91537.91537,0,1,1,.335-1.25042A.91537.91537,0,0,1,80.27644,102.85186Z" />
    <path class="a" style="opacity:0.1" d="M30.42139,109.69h-2.9043l.33594-1.96778h3.24023l.96-2.832H29.14893l.33593-1.96777H32.7251l1.72754-4.99219h2.16015l-5.71191,16.75195H28.71729Zm8.54394-11.75977h2.16016l-1.7041,4.99219h2.90332l-.33594,1.96777H38.74951l-.96,2.832h2.90332L40.35693,109.69H37.1167l-1.70313,4.99218H33.229Zm6.19141,20.06348,3.59961-21.55176h7.08008l-.31153,1.84863H50.58057L47.605,116.146h4.94336l-.31152,1.84766ZM97.02051,96.44194,93.41992,117.9937H86.33984l.3125-1.84766h4.94434l2.97559-17.85547H89.62793l.3125-1.84863Z" />
</svg>