<svg xmlns="http://www.w3.org/2000/svg" viewBox="0 0 142 134">
	<style>
		.a { fill: #000000; }
		@media (prefers-color-scheme: dark) {
		  .a { fill: #ffffff; }
		}
	</style>
	<path class="a" d="M4.91962,1.516H0V0H20.42877V61.6416h4.6695v1.51648H.3335V61.6416H4.91962ZM32.68567,58.60962q-5.33725-5.3865-5.33649-15.45264,0-10.06072,5.71161-15.49371,5.71014-5.432,16.051-5.432,10.33767,0,15.42578,5.01056Q69.62248,32.25306,69.624,42.5265,69.624,63.999,48.44489,64,38.02069,64,32.68567,58.60962ZM43.35858,39.83124v6.56811q0,9.18109.54187,11.03144a18.93828,18.93828,0,0,0,1.12549,3.032,3.54887,3.54887,0,0,0,3.58575,2.02167q3.252,0,4.25214-3.79071.751-2.69324.75079-12.12592v-7.1575a57.79352,57.79352,0,0,0-.87579-11.916q-.87543-3.74541-4.04382-3.74713a4.16093,4.16093,0,0,0-2.96,1.05242,6.48727,6.48727,0,0,0-1.62616,3.495A64.70016,64.70016,0,0,0,43.35858,39.83124ZM137.33051,61.6416V0H116.90173V1.516h4.91962V61.6416h-4.58618v1.51648H142V61.6416Zm-59.36792-3.032q-5.33793-5.3865-5.33741-15.4526,0-10.06071,5.7116-15.49371,5.71161-5.432,16.051-5.432,10.33839,0,15.42669,5.01056,5.08347,5.01123,5.08538,15.28473Q114.89988,63.999,93.721,64q-10.423,0-15.75841-5.39038ZM88.6355,39.83124v6.56811q0,9.18109.541,11.03144a18.93282,18.93282,0,0,0,1.12641,3.032,3.54716,3.54716,0,0,0,3.58477,2.02167q3.25276,0,4.25269-3.79071.75165-2.69324.75122-12.12592h.00006v-7.1575a57.81812,57.81812,0,0,0-.87634-11.916q-.87533-3.74541-4.04425-3.74713a4.16,4.16,0,0,0-2.95954,1.05242,6.48473,6.48473,0,0,0-1.62567,3.495A64.70861,64.70861,0,0,0,88.6355,39.83124Z" />
	<path class="a" d="M0,80.25H142V78H0Z" />
	<path class="a" d="M90.59189,132.58578l-7.07107-7.07106,2.12132-2.12132a1,1,0,0,0,0-1.41422l-2.12132-2.12132.7071-.70711a1,1,0,0,0,0-1.41421L66.55025,100.05887l2.82843-2.82842-1.41422-1.41422-5.65685,5.65686-2.82843-2.82843,2.12132-2.12132a1,1,0,0,0,0-1.41421h0a1,1,0,0,0-1.41421,0L51.701,103.59441a1,1,0,0,0,0,1.41421h0a1,1,0,0,0,1.41421,0l2.12132-2.12132,2.82843,2.82843-5.65685,5.65686,1.41421,1.41421,2.82843-2.82843L74.32843,127.636a1,1,0,0,0,1.41421,0l.70711-.70711,2.12132,2.12132a1,1,0,0,0,1.41421,0l2.12132-2.12132L89.17767,134ZM59.47918,104.30152l-2.82842-2.82843,1.41421-1.41421,2.82843,2.82842Zm15.55636,21.2132-1.41422-1.41422,2.82843-2.82842-1.41422-1.41422-2.82842,2.82843-1.41422-1.41421,2.82843-2.82843-1.41421-1.41421-2.82843,2.82842-1.41421-1.41421,2.82842-2.82843L69.37868,114.201l-2.82843,2.82843L65.136,115.61522l2.82843-2.82842-1.41422-1.41422L63.72183,114.201l-1.41422-1.41421,2.82843-2.82843-1.41422-1.41421-2.82842,2.82842L58.065,108.54416l7.07107-7.07107L82.1066,118.44365Zm4.24264,1.41421L77.864,125.51472l4.24264-4.24264,1.41422,1.41421Z" />
</svg>