<svg xmlns="http://www.w3.org/2000/svg" xmlns:xlink="http://www.w3.org/1999/xlink" viewBox="0 0 142 173.94161">
    <style>
        .a { fill: #000000; }
        @media (prefers-color-scheme: dark) {
          .a { fill: #ffffff; }
        }
    </style>
    <defs>
        <linearGradient id="a" x1="1.14795" y1="157.57051" x2="140.85205" y2="157.57051"
            gradientUnits="userSpaceOnUse">
            <stop offset="0" stop-color="aqua" />
            <stop offset="0.51117" stop-color="#e1e1e1" />
            <stop offset="1" stop-color="#ff65ff" />
        </linearGradient>
    </defs>
    <path class="a" d="M4.91962,1.516H0V0H20.42877V61.6416h4.6695v1.51648H.3335V61.6416H4.91962ZM32.68567,58.60962q-5.33725-5.3865-5.33649-15.45264,0-10.06072,5.71161-15.49371,5.71014-5.432,16.051-5.432,10.33767,0,15.42578,5.01056,5.08492,5.01123,5.08642,15.28467Q69.624,63.999,48.44489,64,38.02069,64,32.68567,58.60962ZM43.35858,39.83124v6.56811q0,9.18109.54187,11.03144a18.9376,18.9376,0,0,0,1.12549,3.032,3.54885,3.54885,0,0,0,3.58575,2.02167q3.252,0,4.25214-3.79071.751-2.69322.75079-12.12592V39.41034a57.79392,57.79392,0,0,0-.87579-11.916q-.87543-3.74541-4.04382-3.74713a4.16109,4.16109,0,0,0-2.96,1.05243,6.48716,6.48716,0,0,0-1.62616,3.495A64.69815,64.69815,0,0,0,43.35858,39.83124ZM0,128.7373H142v-2.25H0ZM137.33051,61.6416V0H116.90173V1.516h4.91962V61.6416h-4.58618v1.51648H142V61.6416ZM0,80.25H142V78H0ZM77.96259,58.60962q-5.3379-5.3865-5.33741-15.45264,0-10.06072,5.71161-15.49371,5.71161-5.432,16.051-5.432,10.3384,0,15.42669,5.01056,5.08347,5.01123,5.08539,15.28473Q114.8999,63.999,93.721,64,83.298,64,77.96259,58.60962ZM88.6355,39.83124v6.56811q0,9.18109.541,11.03144a18.93249,18.93249,0,0,0,1.12641,3.032,3.54714,3.54714,0,0,0,3.58477,2.02167q3.25278,0,4.25269-3.79071.75165-2.69322.75122-12.12592h.00006V39.41034a57.8197,57.8197,0,0,0-.87634-11.916q-.87534-3.74541-4.04425-3.74713a4.16011,4.16011,0,0,0-2.95954,1.05243,6.48463,6.48463,0,0,0-1.62567,3.495A64.70932,64.70932,0,0,0,88.6355,39.83124ZM48.30518,102.30066a3.46853,3.46853,0,0,1,2.66894-1.00293,3.1983,3.1983,0,0,1,2.19336.67969,5.16829,5.16829,0,0,1,1.24072,1.70019l3.876-2.1084a7.58031,7.58031,0,0,0-2.669-3.11035A8.21,8.21,0,0,0,50.97412,97.286a10.26912,10.26912,0,0,0-3.689.62891,7.50158,7.50158,0,0,0-2.78809,1.81836,8.08564,8.08564,0,0,0-1.751,2.89062,12.368,12.368,0,0,0,0,7.6836,8.06884,8.06884,0,0,0,1.751,2.89062,7.48971,7.48971,0,0,0,2.78809,1.81836,10.371,10.371,0,0,0,3.72314.62891,8.69127,8.69127,0,0,0,4.77686-1.17286,7.65867,7.65867,0,0,0,2.771-3.11035l-3.8081-2.17578A5.69184,5.69184,0,0,1,53.3374,110.954a4.22675,4.22675,0,0,1-5.03222-.32324,3.85527,3.85527,0,0,1-.93506-2.73731V105.038A3.85522,3.85522,0,0,1,48.30518,102.30066Zm14.501,8.99316v3.94336H78.58154v-3.94336H73.21V90.077H62.80615v3.94531h5.37207v17.27148Zm31.73828-16.541a2.35655,2.35655,0,0,0,.66309-1.6836v-.98535a2.33924,2.33924,0,0,0-.66309-1.70019,4.44569,4.44569,0,0,0-4.72656,0,2.33847,2.33847,0,0,0-.66211,1.70019v.98535a2.35569,2.35569,0,0,0,.66211,1.6836,4.35366,4.35366,0,0,0,4.72656,0Zm-10.45507,16.541v3.94336H99.86572v-3.94336h-5.168V97.69421H84.08936v3.94336h5.57617v9.65625Z" />
    <path d="M8.52588,167.1418a12.856,12.856,0,0,1-4.57276-.73144,5.48424,5.48424,0,0,1-2.80517-2.125L3.936,161.53145a4.51064,4.51064,0,0,0,2.05664,1.58106,7.62029,7.62029,0,0,0,2.873.52734,5.076,5.076,0,0,0,2.43116-.49316,1.56421,1.56421,0,0,0,.90087-1.44532,1.137,1.137,0,0,0-.50976-1.03711,4.00682,4.00682,0,0,0-1.292-.49218l-2.51612-.54493a11.26688,11.26688,0,0,1-1.853-.54394,5.12774,5.12774,0,0,1-1.51319-.90039,3.8327,3.8327,0,0,1-1.00293-1.37695,4.90952,4.90952,0,0,1-.35693-1.97266,5.53343,5.53343,0,0,1,.59521-2.60059,5.37142,5.37142,0,0,1,1.666-1.90429,7.76888,7.76888,0,0,1,2.53271-1.15528,12.20031,12.20031,0,0,1,3.16211-.3916,12.55154,12.55154,0,0,1,4.21582.66309,5.79443,5.79443,0,0,1,2.7544,1.81933L15.35986,154.052a4.36744,4.36744,0,0,0-1.73388-1.25879,6.5162,6.5162,0,0,0-2.65186-.50977,4.1252,4.1252,0,0,0-2.125.47657,1.555,1.555,0,0,0-.79932,1.42773,1.0918,1.0918,0,0,0,.459,1.00293,3.93225,3.93225,0,0,0,1.2749.459l2.61817.57812a7.92653,7.92653,0,0,1,3.46826,1.53027,3.934,3.934,0,0,1,1.25781,3.19532,5.41272,5.41272,0,0,1-.61182,2.60156,5.64022,5.64022,0,0,1-1.73437,1.9375A8.34341,8.34341,0,0,1,12.0791,166.717,13.70585,13.70585,0,0,1,8.52588,167.1418Zm21.08008,0a4.13394,4.13394,0,0,1-3.28125-1.19043,4.6398,4.6398,0,0,1-1.03711-3.16211,9.38038,9.38038,0,0,1,.05127-.96875q.05127-.49218.187-1.27539l1.25781-7.47949H22.2959l.646-3.876h2.82178a2.62309,2.62309,0,0,0,1.64893-.44238,2.405,2.405,0,0,0,.73144-1.59765l.67969-4.14844h4.624l-1.02,6.18847H39.2959l-.646,3.876H31.78174l-1.63184,9.792.67969.23828,5.3042-4.18261,2.44824,2.78808-2.04,1.76856q-1.08911.917-1.97217,1.61426a14.08276,14.08276,0,0,1-1.6831,1.15625,6.98153,6.98153,0,0,1-1.58106.67968A6.22611,6.22611,0,0,1,29.606,167.1418Zm18.32519,6.79981a14.48326,14.48326,0,0,1-4.148-.51465,6.35146,6.35146,0,0,1-3.02588-2.0918l2.958-3.07129a4.57978,4.57978,0,0,0,1.853,1.39356,6.44667,6.44667,0,0,0,3.92676.18847,3.10734,3.10734,0,0,0,1.32617-.79589,4.70083,4.70083,0,0,0,.98584-1.57422,12.65935,12.65935,0,0,0,.68017-2.59082l.47608-2.91114h-.16992a10.64812,10.64812,0,0,1-2.29541,3.36622,4.80363,4.80363,0,0,1-3.417,1.22363,5.28955,5.28955,0,0,1-2.19287-.40821,4.05349,4.05349,0,0,1-1.479-1.10449,4.493,4.493,0,0,1-.8501-1.61523,6.77812,6.77812,0,0,1-.272-1.93848,14.161,14.161,0,0,1,.085-1.5293q.085-.78222.28906-2.00683l1.46192-8.77149H49.0874l-1.564,9.34961c-.0459.31836-.09668.64649-.15332.98633a7.08551,7.08551,0,0,0-.085,1.15625,2.71716,2.71716,0,0,0,.10205.71387,1.91071,1.91071,0,0,0,.33984.67969,1.70986,1.70986,0,0,0,.6294.49316,2.2294,2.2294,0,0,0,.96875.1875,2.80859,2.80859,0,0,0,1.52978-.4082,4.65323,4.65323,0,0,0,1.22412-1.19043q.37427-.50978.90088-1.41113a5.61031,5.61031,0,0,0,.69727-1.98829l1.42773-8.56836h4.96436L57.34912,165.51a10.32555,10.32555,0,0,1-3.11084,6.35742A9.29814,9.29814,0,0,1,47.93115,173.94161ZM70.1333,167.1418a4.06086,4.06086,0,0,1-3.12842-1.10547,4.213,4.213,0,0,1-1.01953-2.97461,8.9254,8.9254,0,0,1,.06787-1.12207q.06738-.54345.272-1.59765l2.7539-14.89258h-5.168l.646-3.876h10.166l-3.978,21.52246.50976.16993,4.76026-4.8545,2.71972,2.44043-2.07422,2.37989a16.98749,16.98749,0,0,1-3.24707,2.92382A5.89385,5.89385,0,0,1,70.1333,167.1418Zm21.35059,0a4.173,4.173,0,0,1-3.16114-1.10547,4.12766,4.12766,0,0,1-1.05468-2.97461,8.92419,8.92419,0,0,1,.06836-1.12207q.06738-.54345.27148-1.59765l1.36035-7.27637H83.66455l.64551-3.876H94.646L92.02783,163.0959l.57813.16993,4.76074-4.85059,2.71973,2.43652-2.07422,2.37989a16.98749,16.98749,0,0,1-3.24707,2.92382A5.89585,5.89585,0,0,1,91.48389,167.1418Zm1.39453-20.26465a3.10856,3.10856,0,0,1-2.15918-.59472,1.94876,1.94876,0,0,1-.62891-1.47852,3.9684,3.9684,0,0,1,.03418-.459q.03369-.28857.13574-.90137a2.49309,2.49309,0,0,1,.918-1.666,3.7065,3.7065,0,0,1,2.27832-.57813,3.12184,3.12184,0,0,1,2.15918.59473,1.95725,1.95725,0,0,1,.62891,1.47949,4.20285,4.20285,0,0,1-.03418.459q-.03516.28858-.13574.90137a2.50089,2.50089,0,0,1-.918,1.666A3.70425,3.70425,0,0,1,92.87842,146.87715Zm22.95019,20.26465a13.24044,13.24044,0,0,1-2.5332-.25488,10.22154,10.22154,0,0,1-2.70312-.96973l-3.43458-1.76757-.13574.10156-.4082,2.48242h-4.25l.68066-4.1123,10.87989-8.57911a6.72405,6.72405,0,0,0-1.83594-1.08105,5.75307,5.75307,0,0,0-1.93848-.30371,2.2706,2.2706,0,0,0-1.52929.55371,2.5325,2.5325,0,0,0-.64649,1.99609h-3.67187v-.30566a6.35134,6.35134,0,0,1,1.49609-4.53906,5.305,5.305,0,0,1,4.0459-1.58106,9.56616,9.56616,0,0,1,3.28125.61231,9.77017,9.77017,0,0,1,3.45117,2.37988l.06738.06836.2041-.16992.40821-2.48243h4.25l-.67969,4.11231-11.0166,8.71387,6.66406,1.25.374-.43946-1.01953-2.96972,2.88965-1.249.50977.918a7.82218,7.82218,0,0,1,.7998,1.76758,5.76831,5.76831,0,0,1,.22071,1.56445,4.36326,4.36326,0,0,1-.30567,1.59766,4.2139,4.2139,0,0,1-.86719,1.377,4.09083,4.09083,0,0,1-1.39453.95215A4.65274,4.65274,0,0,1,115.82861,167.1418Zm15.877,0q-3.90967,0-5.7793-1.98925a7.69668,7.69668,0,0,1-1.87012-5.49122,12.65956,12.65956,0,0,1,.748-4.4541,10.07974,10.07974,0,0,1,2.09082-3.43359,9.174,9.174,0,0,1,3.24707-2.21,11.083,11.083,0,0,1,4.25-.78223,9.91007,9.91007,0,0,1,2.499.30567,6.6724,6.6724,0,0,1,2.05664.90136,4.409,4.409,0,0,1,1.39454,1.4961,4.24338,4.24338,0,0,1,.50976,2.125,5.4115,5.4115,0,0,1-.44238,2.10839,4.52364,4.52364,0,0,1-1.7168,1.9209,11.59388,11.59388,0,0,1-3.60449,1.46192,29.59377,29.59377,0,0,1-6.06836.73047,2.0059,2.0059,0,0,0-.03418.32324v.25488a2.86948,2.86948,0,0,0,.78223,2.17578,3.66209,3.66209,0,0,0,2.584.74805,5.86683,5.86683,0,0,0,1.30859-.13574,3.64931,3.64931,0,0,0,1.15625-.49317,6.62619,6.62619,0,0,0,1.12207-.918,15.15078,15.15078,0,0,0,1.24122-1.44433l3.09375,2.00586a16.87511,16.87511,0,0,1-1.4795,1.85254,9.50653,9.50653,0,0,1-1.81836,1.53027,8.59347,8.59347,0,0,1-2.3125,1.03711A10.669,10.669,0,0,1,131.70557,167.1418Zm2.17675-14.8584a4.196,4.196,0,0,0-2.78808.96875,5.60043,5.60043,0,0,0-1.63281,3.24707l-.10157.47657a23.59587,23.59587,0,0,0,3.68946-.44239,6.89663,6.89663,0,0,0,2.00586-.71386,1.85058,1.85058,0,0,0,.833-.88379,2.64335,2.64335,0,0,0,.16993-.88379Q136.05811,152.2839,133.88232,152.2834Z" style="fill:url(#a)" />
</svg>