<svg xmlns="http://www.w3.org/2000/svg" viewBox="0 0 142 182">
    <style>
        .a { fill: #000000; }
        @media (prefers-color-scheme: dark) {
          .a { fill: #ffffff; }
        }
    </style>

    <path class="a" d="M4.91962,1.516H0V0H20.42877V61.6416h4.6695v1.51648H.3335V61.6416H4.91962ZM32.68567,58.60962q-5.33725-5.3865-5.33649-15.45264,0-10.06072,5.71161-15.49371,5.71014-5.432,16.051-5.432,10.33767,0,15.42578,5.01056Q69.62248,32.25306,69.624,42.5265,69.624,63.999,48.44489,64,38.02069,64,32.68567,58.60962ZM43.35858,39.83124v6.56811q0,9.18109.54187,11.03144a18.93828,18.93828,0,0,0,1.12549,3.032,3.54886,3.54886,0,0,0,3.58575,2.02167q3.252,0,4.25214-3.79071.751-2.69324.75079-12.12592v-7.1575a57.79357,57.79357,0,0,0-.87579-11.916q-.87543-3.74541-4.04382-3.74713a4.16107,4.16107,0,0,0-2.96,1.05243,6.4872,6.4872,0,0,0-1.62616,3.495A64.699,64.699,0,0,0,43.35858,39.83124ZM137.33051,61.6416V0H116.90173V1.516h4.91962V61.6416h-4.58618v1.51648H142V61.6416Zm-59.36792-3.032Q72.62468,53.2231,72.62518,43.157q0-10.06072,5.7116-15.49371,5.71161-5.432,16.051-5.432,10.33839,0,15.42669,5.01056,5.08347,5.01123,5.08538,15.28473Q114.8999,63.999,93.721,64q-10.423,0-15.75841-5.39038ZM88.6355,39.83124v6.56811q0,9.18109.541,11.03144a18.93282,18.93282,0,0,0,1.12641,3.032,3.54715,3.54715,0,0,0,3.58477,2.02167q3.25276,0,4.25269-3.79071.75165-2.69324.75122-12.12592h.00006v-7.1575a57.81892,57.81892,0,0,0-.87634-11.916q-.87533-3.74541-4.04425-3.74713a4.16011,4.16011,0,0,0-2.95954,1.05243,6.48466,6.48466,0,0,0-1.62567,3.495A64.70833,64.70833,0,0,0,88.6355,39.83124Z" />
    <path class="a" d="M0,80H142V78H0Z" />
    <path class="a" d="M94.54443,99.29932a2.3565,2.3565,0,0,0,.6631-1.6836v-.98536a2.33921,2.33921,0,0,0-.6631-1.70018,4.44567,4.44567,0,0,0-4.72656,0,2.33846,2.33846,0,0,0-.66211,1.70018v.98536a2.35572,2.35572,0,0,0,.66211,1.6836A4.35366,4.35366,0,0,0,94.54443,99.29932Zm-46.23925,7.54785a3.46851,3.46851,0,0,1,2.66894-1.00293,3.19824,3.19824,0,0,1,2.19336.67969,5.16812,5.16812,0,0,1,1.24072,1.70018l3.876-2.10839a7.58028,7.58028,0,0,0-2.669-3.11036,8.21,8.21,0,0,0-4.64111-1.17285,10.26889,10.26889,0,0,0-3.689.62891,7.50149,7.50149,0,0,0-2.78809,1.81836,8.0855,8.0855,0,0,0-1.751,2.89061,12.368,12.368,0,0,0,0,7.6836,8.0687,8.0687,0,0,0,1.751,2.89063A7.48955,7.48955,0,0,0,47.2851,119.563a10.37091,10.37091,0,0,0,3.72314.6289A8.69136,8.69136,0,0,0,55.7851,119.019a7.65872,7.65872,0,0,0,2.771-3.11035L54.748,113.73289a5.69171,5.69171,0,0,1-1.41064,1.76758,4.22674,4.22674,0,0,1-5.03222-.32324,3.85523,3.85523,0,0,1-.93506-2.73731v-2.85547A3.85523,3.85523,0,0,1,48.30518,106.84717Zm14.501,8.99316v3.94336H78.58154v-3.94336H73.21V94.62354H62.80615v3.94532h5.37207v17.27147Zm21.28321,0v3.94336H99.86572v-3.94336h-5.168V102.24072H84.08936v3.94336h5.57617v9.65625Z" />
    <path class="a" d="M.1125,136h142v-2h-142Z" />
    <path class="a" d="M113.99849,150.75006l-.00338,29.82263c0,1.40576-.00076,1.43286-1.437,1.42682L107.99972,182l-2-4,.01227-24,1.98773-4,5.2824-.00049C113.80174,149.99066,114.0182,150.22613,113.99849,150.75006ZM71.09006,150H65.99637l-2.025,7.84283V172l2,4,2.02783,2h2l2-2V150.95184C72.01657,150.23389,71.738,149.97736,71.09006,150Zm-19.09288.93536c.01294-.62616-.12866-.93237-.83526-.9129L46,150l-8,4v28l6.38239-.00488c1.71179-.00659,1.53778.20123,1.54071-1.50843.014-8.012.06695-16.47442.0769-24.48669l5.137.07477c.67347.0177.87873-.2204.86206-.88092C51.96044,153.66315,51.96538,152.46637,51.99718,150.93536Zm42.00043-.10565c.00116-.6178-.20532-.86523-.83746-.85425H88l-4,10v10.00379l-1.98486,5.99621L80,178v2l2,2,5.01953-.00586c.82953.02411.99329-.287.97974-.95581-.0365-1.79535-.008-3.24231-.00525-5.03833l.00006-.04834.00592.0238h5.09876c.667.01355.90283-.21789.90124-.89441C93.98125,167.11383,93.9829,158.79694,93.99761,150.82971Z" />

    <path d="M28.61473,150c-.51233-.00214-.62006.2132-.61444.67511.02069,1.70349.02887,3.07172,0,4.775-.00873.51246.18084.55726.64862.54987H32.76c1.08905-.07819,1.24628.3313,1.2403,1.36353v23.64331c-.00354.82281.24206,1.01861,1.02051.9906L40.00865,182c.00555-8.14337.02985-16.66907-.0083-24.81226-.00452-.9696.28625-1.23071,1.18017-1.18774h4.81977v-6Z" style="fill:#39c976" />
    <path d="M82,150.80725l-.0108,25.18726L66.80128,176c-.86212.037-.8302-.45453-.829-1.0451L66,150h-5.4176c-.579-.01239-.58271.30975-.5824.72021v24.49018c-.00122.57733.16406.8031.75885.78961h4.18066c.83344-.03284,1.09235-.16266,1.06049.61487v4.49988c-.01325.60809-.01215.89416.73822.88525H82l.01392-6H88V150H82.7843C82.11127,149.98059,81.99829,150.20361,82,150.80725Z" style="fill:#39c976" />
    <path d="M102.55548,150c-.545-.01221-.55181.3-.55157.715L102,181.27057c-.00055.49359.07032.74328.63251.72943h5.35156L108,150Z" style="fill:#39c976" />
</svg>