<svg xmlns="http://www.w3.org/2000/svg" viewBox="0 0 142 135.15295">
  <style>
    .a { fill: #000000; }
    @media (prefers-color-scheme: dark) {
      .a { fill: #ffffff; }
    }
  </style>
  <path class="a" d="M4.91962,1.516H0V0H20.42877V61.6416h4.6695v1.51648H.3335V61.6416H4.91962ZM32.68567,58.60962q-5.33725-5.3865-5.33649-15.45264,0-10.06072,5.71161-15.49371,5.71014-5.432,16.051-5.432,10.33767,0,15.42578,5.01056Q69.62248,32.25306,69.624,42.5265,69.624,63.999,48.44489,64,38.02069,64,32.68567,58.60962ZM43.35858,39.83124v6.56811q0,9.18109.54187,11.03144a18.93828,18.93828,0,0,0,1.12549,3.032,3.54887,3.54887,0,0,0,3.58575,2.02167q3.252,0,4.25214-3.79071.751-2.69324.75079-12.12592v-7.1575a57.79352,57.79352,0,0,0-.87579-11.916q-.87543-3.74541-4.04382-3.74713a4.161,4.161,0,0,0-2.96,1.05242,6.48727,6.48727,0,0,0-1.62616,3.495A64.70016,64.70016,0,0,0,43.35858,39.83124ZM137.33051,61.6416V0H116.90173V1.516h4.91962V61.6416h-4.58618v1.51648H142V61.6416Zm-59.36792-3.032q-5.33793-5.3865-5.33741-15.4526,0-10.06071,5.7116-15.49371,5.71161-5.432,16.051-5.432,10.33839,0,15.42669,5.01056,5.08347,5.01123,5.08538,15.28473Q114.89988,63.999,93.721,64q-10.423,0-15.75841-5.39038ZM88.6355,39.83124v6.56811q0,9.18109.541,11.03144a18.93282,18.93282,0,0,0,1.12641,3.032,3.54716,3.54716,0,0,0,3.58477,2.02167q3.25276,0,4.25269-3.79071.75165-2.69324.75122-12.12592h.00006v-7.1575a57.81812,57.81812,0,0,0-.87634-11.916q-.87533-3.74541-4.04425-3.74713a4.16006,4.16006,0,0,0-2.95954,1.05242,6.48473,6.48473,0,0,0-1.62567,3.495A64.70861,64.70861,0,0,0,88.6355,39.83124Z" />
  <path class="a" d="M0,80.25H142V78H0Z" />
  <path class="a" d="M92.049,109.16356l-1.09813-2.66236a.991.991,0,0,0-1.67594-.25792l-1.856,2.21418L86.147,105.37439a.97233.97233,0,0,0-.7659-.6013.986.986,0,0,0-.91.3435l-1.856,2.21417-1.27182-3.08307a.96633.96633,0,0,0-.766-.60141.98631.98631,0,0,0-.91.34349l-1.90857,2.27748L77.52,105.7577a.99161.99161,0,0,0-.67174-.54538l-6.71756-1.5756-1.10854-1.10854H80.66009c3.55837,0,8.51612-2.49945,9.24715-5.83851a1.35158,1.35158,0,0,0-1.34649-1.59775h-30.394l.001.001A8.26067,8.26067,0,0,0,52.099,108.98056l.00121,5.35885-1.87395,1.72992a.98906.98906,0,0,0-.234,1.12912l1.20924,2.73389a.99154.99154,0,0,0,.90654.5904l.98569-.00037.98376-.00024a.99135.99135,0,0,0,.90605-.591l1.20754-2.73474a.98883.98883,0,0,0-.23468-1.12887l-1.87323-1.72871-.00108-3.33L70.486,127.41265h-6.559a.99151.99151,0,0,0-.90242,1.404l.77267,1.69059H57.60224V128.8999a1.49012,1.49012,0,0,0-1.48725-1.48725h-.46283a5.78278,5.78278,0,0,0-5.77665,5.77666,1.96616,1.96616,0,0,0,1.96363,1.96364h30.063l-.0374-.02a8.26253,8.26253,0,0,0,5.64655-14.1157L72.79163,106.29762l3.13632.73564.69424,1.48362a.9915.9915,0,0,0,.67174.54538.8496.8496,0,0,0,.09743.01694.98175.98175,0,0,0,.88886-.34652l1.856-2.21417,1.27194,3.08307a.97436.97436,0,0,0,.76589.60141.98632.98632,0,0,0,.91-.34349l1.85592-2.21417L86.212,110.7284a.97012.97012,0,0,0,.766.60129.986.986,0,0,0,.91-.34349L89.744,108.772l.47288,1.14727a.991.991,0,1,0,1.83219-.75573Zm-4.413-12.08864c-1.13093,1.8771-4.53788,3.47026-6.976,3.47026H67.03918l-3.028-3.028c-.16848-.16848-.36262-.29133-.54138-.44226ZM54.09181,117.04413,53.43,118.53925l-.337.00012-.33889.00012-.66277-1.49475,1.00058-.92361Zm-2.2333,16.14518a3.79783,3.79783,0,0,1,3.76073-3.79365v2.10306a.99093.99093,0,0,0,.9915.9915H65.3406a.99151.99151,0,0,0,.90242-1.404l-.77267-1.69058H72.469l3.332,3.332c.16968.16969.365.2935.54513.44528ZM86.109,131.32552a6.30442,6.30442,0,0,1-8.90584-.00012L53.70293,107.8253a6.29746,6.29746,0,0,1,8.906-8.906l23.50022,23.50022A6.30457,6.30457,0,0,1,86.109,131.32552Z" />
  <path class="a" d="M76.12644,128.56186l1.37094,1.37094a1.59615,1.59615,0,0,0,2.25727,0l.5933-.5933.5933.5933a1.59613,1.59613,0,0,0,2.25726,0l1.37094-1.37094a1.59635,1.59635,0,0,0,0-2.25726l-.5933-.59331.59318-.59318a1.59628,1.59628,0,0,0,0-2.25738l-1.37094-1.37082a1.596,1.596,0,0,0-2.25726,0l-.59318.59318-.5933-.5933a1.59615,1.59615,0,0,0-2.25727,0l-1.37094,1.37094a1.59613,1.59613,0,0,0,0,2.25726l.59331.5933-.59331.59331A1.59613,1.59613,0,0,0,76.12644,128.56186Zm1.99547-4.25273-.31977-.31977.82387-.82387.31977.31977a1.9829,1.9829,0,0,0,2.80433,0l.31965-.31965.82387.82387-.31965.31965a1.98291,1.98291,0,0,0,0,2.80433l.31965.31977-.82375.82387-.31977-.31977a1.98279,1.98279,0,0,0-2.80433,0l-.31977.31977-.82387-.82387.31977-.31977A1.98279,1.98279,0,0,0,78.12191,124.30913Z" />
  <path class="a" d="M54.57812,99.94146a5.07517,5.07517,0,1,0,7.17737,0A5.0752,5.0752,0,0,0,54.57812,99.94146Zm5.7752,5.77521a3.09221,3.09221,0,1,1,0-4.37292A3.09567,3.09567,0,0,1,60.35332,105.71667Z" />
</svg>