<svg xmlns="http://www.w3.org/2000/svg" xmlns:xlink="http://www.w3.org/1999/xlink" viewBox="0 0 142 181.60615">
    <style>
        .a { fill: #000000; }
        @media (prefers-color-scheme: dark) {
          .a { fill: #ffffff; }
        }
    </style>
    <defs>
        <linearGradient id="a" x1="1.14795" y1="165.23506" x2="140.85205" y2="165.23506"
            gradientUnits="userSpaceOnUse">
            <stop offset="0" stop-color="aqua" />
            <stop offset="0.51117" stop-color="#e1e1e1" />
            <stop offset="1" stop-color="#ff65ff" />
        </linearGradient>
    </defs>
    <path class="a" d="M4.91962,1.516H0V0H20.42877V61.6416h4.6695v1.51648H.3335V61.6416H4.91962ZM32.68567,58.60962q-5.33725-5.3865-5.33649-15.45264,0-10.06072,5.71161-15.49371,5.71014-5.432,16.051-5.432,10.33767,0,15.42578,5.01056,5.08492,5.01123,5.08642,15.28467Q69.624,63.999,48.44489,64,38.02069,64,32.68567,58.60962ZM43.35858,39.83124v6.56811q0,9.18109.54187,11.03144a18.9376,18.9376,0,0,0,1.12549,3.032,3.54885,3.54885,0,0,0,3.58575,2.02167q3.252,0,4.25214-3.79071.751-2.69322.75079-12.12592V39.41034a57.79392,57.79392,0,0,0-.87579-11.916q-.87543-3.74541-4.04382-3.74713a4.16109,4.16109,0,0,0-2.96,1.05243,6.48716,6.48716,0,0,0-1.62616,3.495A64.69815,64.69815,0,0,0,43.35858,39.83124ZM137.33051,61.6416V0H116.90173V1.516h4.91962V61.6416h-4.58618v1.51648H142V61.6416Zm-59.36792-3.032q-5.3379-5.3865-5.33741-15.45264,0-10.06072,5.71161-15.49371,5.71161-5.432,16.051-5.432,10.3384,0,15.42669,5.01056,5.08347,5.01123,5.08539,15.28473Q114.8999,63.999,93.721,64,83.298,64,77.96259,58.60962ZM88.6355,39.83124v6.56811q0,9.18109.541,11.03144a18.93249,18.93249,0,0,0,1.12641,3.032,3.54714,3.54714,0,0,0,3.58477,2.02167q3.25278,0,4.25269-3.79071.75165-2.69322.75122-12.12592h.00006V39.41034a57.8197,57.8197,0,0,0-.87634-11.916q-.87534-3.74541-4.04425-3.74713a4.16011,4.16011,0,0,0-2.95954,1.05243,6.48463,6.48463,0,0,0-1.62567,3.495A64.70932,64.70932,0,0,0,88.6355,39.83124Z" />
    <path class="a" d="M0,80.25H142V78H0Z" />
    <path class="a" d="M94.54443,99.29932a2.35655,2.35655,0,0,0,.66309-1.6836v-.98535a2.33924,2.33924,0,0,0-.66309-1.70019,4.44569,4.44569,0,0,0-4.72656,0,2.33847,2.33847,0,0,0-.66211,1.70019v.98535a2.35569,2.35569,0,0,0,.66211,1.6836,4.35366,4.35366,0,0,0,4.72656,0Zm-46.23925,7.54785a3.46853,3.46853,0,0,1,2.66894-1.00293,3.1983,3.1983,0,0,1,2.19336.67969,5.16829,5.16829,0,0,1,1.24072,1.70019l3.876-2.1084a7.58031,7.58031,0,0,0-2.669-3.11035,8.2099,8.2099,0,0,0-4.64111-1.17285,10.2689,10.2689,0,0,0-3.689.62891,7.50158,7.50158,0,0,0-2.78809,1.81836,8.08564,8.08564,0,0,0-1.751,2.89062,12.368,12.368,0,0,0,0,7.68359,8.0688,8.0688,0,0,0,1.751,2.89063,7.48971,7.48971,0,0,0,2.78809,1.81836,10.371,10.371,0,0,0,3.72314.6289,8.69127,8.69127,0,0,0,4.77686-1.17285,7.65867,7.65867,0,0,0,2.771-3.11035l-3.8081-2.17578a5.69184,5.69184,0,0,1-1.41065,1.76758,4.22675,4.22675,0,0,1-5.03222-.32324,3.85527,3.85527,0,0,1-.93506-2.73731v-2.85547A3.85522,3.85522,0,0,1,48.30518,106.84717Zm14.501,8.99316v3.94336H78.58154v-3.94336H73.21V94.62354H62.80615v3.94531h5.37207v17.27148Zm21.28321,0v3.94336H99.86572v-3.94336h-5.168V102.24072H84.08936v3.94336h5.57617v9.65625Z" />
    <path class="a" d="M0,135.7373H142v-2.25H0Z" />
    
    <path d="M8.52588,174.80635a12.85579,12.85579,0,0,1-4.57276-.73145,5.48418,5.48418,0,0,1-2.80517-2.125L3.936,169.196a4.51069,4.51069,0,0,0,2.05664,1.58105,7.62029,7.62029,0,0,0,2.873.52734,5.076,5.076,0,0,0,2.43116-.49316,1.5642,1.5642,0,0,0,.90087-1.44531,1.137,1.137,0,0,0-.50976-1.03711,4.00658,4.00658,0,0,0-1.292-.49219l-2.51612-.54492a11.26689,11.26689,0,0,1-1.853-.54395,5.12732,5.12732,0,0,1-1.51319-.90039,3.83262,3.83262,0,0,1-1.00293-1.377,4.90949,4.90949,0,0,1-.35693-1.97266,5.53336,5.53336,0,0,1,.59521-2.60058,5.37145,5.37145,0,0,1,1.666-1.9043,7.76887,7.76887,0,0,1,2.53271-1.15527,12.20031,12.20031,0,0,1,3.16211-.3916,12.55179,12.55179,0,0,1,4.21582.66308,5.79436,5.79436,0,0,1,2.7544,1.81934l-2.72022,2.78808a4.36753,4.36753,0,0,0-1.73388-1.25879,6.5162,6.5162,0,0,0-2.65186-.50976,4.12531,4.12531,0,0,0-2.125.47656,1.555,1.555,0,0,0-.79932,1.42774,1.09182,1.09182,0,0,0,.459,1.00293,3.932,3.932,0,0,0,1.2749.459l2.61817.57813a7.92642,7.92642,0,0,1,3.46826,1.53027,3.934,3.934,0,0,1,1.25781,3.19531,5.41266,5.41266,0,0,1-.61182,2.60156,5.64,5.64,0,0,1-1.73437,1.9375,8.34319,8.34319,0,0,1-2.70264,1.22461A13.7054,13.7054,0,0,1,8.52588,174.80635Zm21.08008,0a4.13394,4.13394,0,0,1-3.28125-1.19043,4.6398,4.6398,0,0,1-1.03711-3.16211,9.38009,9.38009,0,0,1,.05127-.96875q.05127-.4922.187-1.27539l1.25781-7.47949H22.2959l.646-3.876h2.82178a2.62309,2.62309,0,0,0,1.64893-.44238,2.405,2.405,0,0,0,.73144-1.59766l.67969-4.14844h4.624l-1.02,6.18848H39.2959l-.646,3.876H31.78174l-1.63184,9.792.67969.23828,5.3042-4.18262,2.44824,2.78809-2.04,1.76855q-1.08911.917-1.97217,1.61426a14.08158,14.08158,0,0,1-1.6831,1.15625,6.98158,6.98158,0,0,1-1.58106.67969A6.22611,6.22611,0,0,1,29.606,174.80635Zm18.32519,6.7998a14.48291,14.48291,0,0,1-4.148-.51465,6.35151,6.35151,0,0,1-3.02588-2.09179l2.958-3.07129a4.57975,4.57975,0,0,0,1.853,1.39355,6.44658,6.44658,0,0,0,3.92676.18848,3.10736,3.10736,0,0,0,1.32617-.7959,4.70072,4.70072,0,0,0,.98584-1.57422,12.65917,12.65917,0,0,0,.68017-2.59082l.47608-2.91113h-.16992a10.64818,10.64818,0,0,1-2.29541,3.36621,4.80359,4.80359,0,0,1-3.417,1.22363,5.28971,5.28971,0,0,1-2.19287-.4082,4.0536,4.0536,0,0,1-1.479-1.10449,4.493,4.493,0,0,1-.8501-1.61524,6.778,6.778,0,0,1-.272-1.93847,14.16087,14.16087,0,0,1,.085-1.5293q.085-.78222.28906-2.00684l1.46192-8.77148H49.0874l-1.564,9.34961c-.0459.31836-.09668.64648-.15332.98633a7.08534,7.08534,0,0,0-.085,1.15625,2.71709,2.71709,0,0,0,.10205.71386,1.91071,1.91071,0,0,0,.33984.67969,1.71,1.71,0,0,0,.6294.49317,2.2294,2.2294,0,0,0,.96875.1875,2.80851,2.80851,0,0,0,1.52978-.40821A4.65307,4.65307,0,0,0,52.0791,168.822q.37427-.50976.90088-1.41113a5.61033,5.61033,0,0,0,.69727-1.98828L55.105,156.8542h4.96436l-2.72022,16.32031a10.32555,10.32555,0,0,1-3.11084,6.35742A9.29809,9.29809,0,0,1,47.93115,181.60615Zm22.20215-6.7998a4.06086,4.06086,0,0,1-3.12842-1.10547,4.213,4.213,0,0,1-1.01953-2.97461,8.92529,8.92529,0,0,1,.06787-1.12207q.06738-.54346.272-1.59766L69.0791,153.114h-5.168l.646-3.876h10.166l-3.978,21.52246.50976.16992,4.76026-4.85449,2.71972,2.44043-2.07422,2.37988A16.98792,16.98792,0,0,1,73.41357,173.82,5.89385,5.89385,0,0,1,70.1333,174.80635Zm21.35059,0a4.173,4.173,0,0,1-3.16114-1.10547,4.12769,4.12769,0,0,1-1.05468-2.97461,8.92407,8.92407,0,0,1,.06836-1.12207q.06738-.54346.27148-1.59766l1.36035-7.27636H83.66455l.64551-3.876H94.646l-2.61817,13.90625.57813.16992,4.76074-4.85058,2.71973,2.43652-2.07422,2.37988A16.98792,16.98792,0,0,1,94.76514,173.82,5.89585,5.89585,0,0,1,91.48389,174.80635Zm1.39453-20.26465a3.10856,3.10856,0,0,1-2.15918-.59473,1.94874,1.94874,0,0,1-.62891-1.47851,3.9687,3.9687,0,0,1,.03418-.459q.03369-.28857.13574-.90136a2.49311,2.49311,0,0,1,.918-1.666,3.7065,3.7065,0,0,1,2.27832-.57813,3.12184,3.12184,0,0,1,2.15918.59473,1.95726,1.95726,0,0,1,.62891,1.47949,4.203,4.203,0,0,1-.03418.459q-.03516.28857-.13574.90137a2.50087,2.50087,0,0,1-.918,1.666A3.70425,3.70425,0,0,1,92.87842,154.5417Zm22.95019,20.26465a13.23967,13.23967,0,0,1-2.5332-.25489,10.22185,10.22185,0,0,1-2.70312-.96972l-3.43458-1.76758-.13574.10156-.4082,2.48242h-4.25l.68066-4.1123,10.87989-8.5791a6.72411,6.72411,0,0,0-1.83594-1.08106,5.75332,5.75332,0,0,0-1.93848-.30371,2.2706,2.2706,0,0,0-1.52929.55371,2.53251,2.53251,0,0,0-.64649,1.9961h-3.67187v-.30567a6.35134,6.35134,0,0,1,1.49609-4.53906,5.305,5.305,0,0,1,4.0459-1.58105,9.56638,9.56638,0,0,1,3.28125.6123,9.77017,9.77017,0,0,1,3.45117,2.37988l.06738.06836.2041-.16992.40821-2.48242h4.25l-.67969,4.1123-11.0166,8.71387,6.66406,1.25.374-.43945-1.01953-2.96973,2.88965-1.249.50977.918a7.82212,7.82212,0,0,1,.7998,1.76757,5.76838,5.76838,0,0,1,.22071,1.56446,4.36321,4.36321,0,0,1-.30567,1.59765,4.21384,4.21384,0,0,1-.86719,1.377,4.091,4.091,0,0,1-1.39453.95215A4.65274,4.65274,0,0,1,115.82861,174.80635Zm15.877,0q-3.90967,0-5.7793-1.98926a7.69665,7.69665,0,0,1-1.87012-5.49121,12.65952,12.65952,0,0,1,.748-4.4541,10.07969,10.07969,0,0,1,2.09082-3.4336,9.17427,9.17427,0,0,1,3.24707-2.21,11.08322,11.08322,0,0,1,4.25-.78222,9.91053,9.91053,0,0,1,2.499.30566,6.67217,6.67217,0,0,1,2.05664.90137,4.409,4.409,0,0,1,1.39454,1.49609,4.24341,4.24341,0,0,1,.50976,2.125,5.41155,5.41155,0,0,1-.44238,2.1084,4.5237,4.5237,0,0,1-1.7168,1.9209,11.5939,11.5939,0,0,1-3.60449,1.46191,29.59237,29.59237,0,0,1-6.06836.73047,2.006,2.006,0,0,0-.03418.32324v.25489a2.86951,2.86951,0,0,0,.78223,2.17578,3.66214,3.66214,0,0,0,2.584.748,5.86683,5.86683,0,0,0,1.30859-.13574,3.64906,3.64906,0,0,0,1.15625-.49316,6.62716,6.62716,0,0,0,1.12207-.918,15.151,15.151,0,0,0,1.24122-1.44434l3.09375,2.00586a16.87322,16.87322,0,0,1-1.4795,1.85254,9.50617,9.50617,0,0,1-1.81836,1.53027,8.59316,8.59316,0,0,1-2.3125,1.03711A10.66857,10.66857,0,0,1,131.70557,174.80635Zm2.17675-14.8584a4.196,4.196,0,0,0-2.78808.96875,5.60037,5.60037,0,0,0-1.63281,3.24707l-.10157.47656a23.59729,23.59729,0,0,0,3.68946-.44238,6.8966,6.8966,0,0,0,2.00586-.71387,1.8505,1.8505,0,0,0,.833-.88379,2.6433,2.6433,0,0,0,.16993-.88379Q136.05811,159.94844,133.88232,159.948Z" style="fill:url(#a)" />
</svg>