<svg xmlns="http://www.w3.org/2000/svg" viewBox="0 0 142 125.73438">
    <style>
        .a { fill: #000000; }
        @media (prefers-color-scheme: dark) {
          .a { fill: #ffffff; }
        }
    </style>
    <path class="a" d="M4.91962,1.516H0V0H20.42877V61.6416h4.6695v1.51648H.3335V61.6416H4.91962ZM32.68567,58.60962q-5.33725-5.3865-5.33649-15.45264,0-10.06072,5.71161-15.49371,5.71014-5.432,16.051-5.432,10.33767,0,15.42578,5.01056,5.08492,5.01123,5.08642,15.28467Q69.624,63.999,48.44489,64,38.02069,64,32.68567,58.60962ZM43.35858,39.83124v6.56811q0,9.18109.54187,11.03144a18.9376,18.9376,0,0,0,1.12549,3.032,3.54885,3.54885,0,0,0,3.58575,2.02167q3.252,0,4.25214-3.79071.751-2.69322.75079-12.12592V39.41034a57.79392,57.79392,0,0,0-.87579-11.916q-.87543-3.74541-4.04382-3.74713a4.16109,4.16109,0,0,0-2.96,1.05243,6.48716,6.48716,0,0,0-1.62616,3.495A64.69815,64.69815,0,0,0,43.35858,39.83124ZM137.33051,61.6416V0H116.90173V1.516h4.91962V61.6416h-4.58618v1.51648H142V61.6416Zm-59.36792-3.032q-5.3379-5.3865-5.33741-15.45264,0-10.06072,5.71161-15.49371,5.71161-5.432,16.051-5.432,10.3384,0,15.42669,5.01056,5.08347,5.01123,5.08539,15.28473Q114.8999,63.999,93.721,64,83.298,64,77.96259,58.60962ZM88.6355,39.83124v6.56811q0,9.18109.541,11.03144a18.93249,18.93249,0,0,0,1.12641,3.032,3.54714,3.54714,0,0,0,3.58477,2.02167q3.25278,0,4.25269-3.79071.75165-2.69322.75122-12.12592h.00006V39.41034a57.8197,57.8197,0,0,0-.87634-11.916q-.87534-3.74541-4.04425-3.74713a4.16011,4.16011,0,0,0-2.95954,1.05243,6.48463,6.48463,0,0,0-1.62567,3.495A64.70932,64.70932,0,0,0,88.6355,39.83124Z" />
    <path class="a" d="M0,80.25H142V78H0Z" />
    <path class="a" d="M5.48364,123.21875V92.68652H16.49927v3.36621H9.52954v23.79981h6.96973v3.36621ZM19.93335,114.582h5.37207V97.31055H19.93335V93.36621H30.33716V114.582h5.37207v3.94434H19.93335ZM44.821,118.93457a10.15492,10.15492,0,0,1-3.67236-.62891,7.52,7.52,0,0,1-2.771-1.81933,8.05753,8.05753,0,0,1-1.751-2.88965,12.37086,12.37086,0,0,1,0-7.68457,8.07447,8.07447,0,0,1,1.751-2.88965,7.53223,7.53223,0,0,1,2.771-1.81934,11.03513,11.03513,0,0,1,7.34424,0,7.53639,7.53639,0,0,1,2.771,1.81934,8.08152,8.08152,0,0,1,1.751,2.88965,12.37086,12.37086,0,0,1,0,7.68457,8.06455,8.06455,0,0,1-1.751,2.88965,7.52418,7.52418,0,0,1-2.771,1.81933A10.15223,10.15223,0,0,1,44.821,118.93457Zm0-3.74023a3.39339,3.39339,0,0,0,2.65186-1.05372,4.3123,4.3123,0,0,0,.95215-2.99218v-2.78809a4.314,4.314,0,0,0-.95215-2.99219,3.86441,3.86441,0,0,0-5.3042,0,4.31157,4.31157,0,0,0-.95166,2.99219v2.78809a4.30985,4.30985,0,0,0,.95166,2.99218A3.39236,3.39236,0,0,0,44.821,115.19434ZM72.12183,120.294a4.40467,4.40467,0,0,1-2.34522,4.11425q-2.34594,1.32569-7.37793,1.32618a24.51976,24.51976,0,0,1-4.148-.28907,8.3493,8.3493,0,0,1-2.60107-.833,3.27668,3.27668,0,0,1-1.36035-1.292,3.46989,3.46989,0,0,1-.39063-1.63183,2.824,2.824,0,0,1,.88379-2.26075,6.029,6.029,0,0,1,2.48193-1.17382v-.20313a4.39188,4.39188,0,0,1-1.78466-.96973,2.34,2.34,0,0,1-.66309-1.78515,2.17142,2.17142,0,0,1,.8667-1.90332,6.63035,6.63035,0,0,1,2.29541-.95215v-.2041a5.738,5.738,0,0,1-2.43115-2.1084,6.00673,6.00673,0,0,1-.86719-3.29785,6.36023,6.36023,0,0,1,.544-2.70313,5.23115,5.23115,0,0,1,1.54736-1.9541,7.0713,7.0713,0,0,1,2.397-1.19043,11.10661,11.10661,0,0,1,3.12793-.4082,12.19578,12.19578,0,0,1,3.09375.374v-.95215a2.25253,2.25253,0,0,1,.71436-1.70019,2.74191,2.74191,0,0,1,1.97168-.67969h3.09423v3.67188h-4.2163v.30664a5.58038,5.58038,0,0,1,2.227,2.05664,5.99616,5.99616,0,0,1,.79931,3.17871,6.25058,6.25058,0,0,1-.54394,2.68652,5.34781,5.34781,0,0,1-1.56446,1.95508,7.0998,7.0998,0,0,1-2.43066,1.207,11.32955,11.32955,0,0,1-3.145.40723,12.45581,12.45581,0,0,1-1.49609-.085,9.67047,9.67047,0,0,1-1.35987-.25489,2.147,2.147,0,0,0-.6289.51075,1.17637,1.17637,0,0,0-.25537.78125.96079.96079,0,0,0,.2041.64648,1.23485,1.23485,0,0,0,.561.35645,3.36207,3.36207,0,0,0,.833.15332q.47607.03369.98584.03418h4.01221a11.90679,11.90679,0,0,1,3.1958.374,6.10646,6.10646,0,0,1,2.17627,1.05371,3.95653,3.95653,0,0,1,1.22412,1.59766A5.3672,5.3672,0,0,1,72.12183,120.294Zm-4.75928.374a1.24715,1.24715,0,0,0-.54395-1.07031,3.82812,3.82812,0,0,0-2.07422-.39161H58.72632a1.80218,1.80218,0,0,0-.67969,1.42872,1.61535,1.61535,0,0,0,.69678,1.34277,4.02415,4.02415,0,0,0,2.36328.52637h2.958a5.03086,5.03086,0,0,0,2.51562-.47559A1.50626,1.50626,0,0,0,67.36255,120.668Zm-5.06592-10.77735a2.91735,2.91735,0,0,0,2.227-.748,2.68379,2.68379,0,0,0,.69678-1.9043v-.81543a2.68542,2.68542,0,0,0-.69678-1.9043,2.92111,2.92111,0,0,0-2.227-.748,2.81284,2.81284,0,0,0-2.17627.748,2.72209,2.72209,0,0,0-.67969,1.9043v.81543a2.72042,2.72042,0,0,0,.67969,1.9043A2.80923,2.80923,0,0,0,62.29663,109.89062ZM91.16187,120.294a4.40593,4.40593,0,0,1-2.34571,4.11425q-2.34667,1.32569-7.37793,1.32618a24.52615,24.52615,0,0,1-4.14844-.28907,8.346,8.346,0,0,1-2.60058-.833,3.2737,3.2737,0,0,1-1.36035-1.292,3.47,3.47,0,0,1-.39063-1.63183,2.824,2.824,0,0,1,.88379-2.26075,6.02371,6.02371,0,0,1,2.48145-1.17382v-.20313a4.3865,4.3865,0,0,1-1.78418-.96973,2.34,2.34,0,0,1-.66309-1.78515,2.17229,2.17229,0,0,1,.86621-1.90332,6.63327,6.63327,0,0,1,2.2959-.95215v-.2041a5.73936,5.73936,0,0,1-2.43164-2.1084,6.00673,6.00673,0,0,1-.86719-3.29785,6.36764,6.36764,0,0,1,.54395-2.70313,5.23239,5.23239,0,0,1,1.54785-1.9541,7.06889,7.06889,0,0,1,2.39648-1.19043,11.10905,11.10905,0,0,1,3.12793-.4082,12.193,12.193,0,0,1,3.09375.374v-.95215a2.2512,2.2512,0,0,1,.71485-1.70019,2.74191,2.74191,0,0,1,1.97168-.67969h3.09375v3.67188H85.9939v.30664a5.57582,5.57582,0,0,1,2.22656,2.05664,5.99619,5.99619,0,0,1,.7998,3.17871,6.25058,6.25058,0,0,1-.54394,2.68652,5.35291,5.35291,0,0,1-1.56445,1.95508,7.09994,7.09994,0,0,1-2.43067,1.207,11.33314,11.33314,0,0,1-3.14551.40723,12.46757,12.46757,0,0,1-1.49609-.085,9.66342,9.66342,0,0,1-1.35938-.25489,2.147,2.147,0,0,0-.6289.51075,1.17405,1.17405,0,0,0-.25586.78125.96079.96079,0,0,0,.2041.64648,1.23652,1.23652,0,0,0,.56152.35645,3.35343,3.35343,0,0,0,.833.15332q.47607.03369.98535.03418h4.0127a11.903,11.903,0,0,1,3.19531.374,6.10891,6.10891,0,0,1,2.17676,1.05371,3.95515,3.95515,0,0,1,1.22363,1.59766A5.36712,5.36712,0,0,1,91.16187,120.294Zm-4.75977.374a1.24715,1.24715,0,0,0-.544-1.07031,3.83039,3.83039,0,0,0-2.07421-.39161H77.76538a1.80365,1.80365,0,0,0-.67969,1.42872,1.61586,1.61586,0,0,0,.69727,1.34277,4.02209,4.02209,0,0,0,2.36328.52637h2.958a5.03212,5.03212,0,0,0,2.51562-.47559A1.50626,1.50626,0,0,0,86.4021,120.668Zm-5.06641-10.77735a2.91783,2.91783,0,0,0,2.22754-.748,2.6856,2.6856,0,0,0,.69629-1.9043v-.81543a2.68724,2.68724,0,0,0-.69629-1.9043,2.92158,2.92158,0,0,0-2.22754-.748,2.81237,2.81237,0,0,0-2.17578.748,2.71985,2.71985,0,0,0-.67969,1.9043v.81543a2.71819,2.71819,0,0,0,.67969,1.9043A2.80877,2.80877,0,0,0,81.33569,109.89062Zm17.67969,9.04395q-4.41943,0-6.69726-2.44824a9.39253,9.39253,0,0,1-2.27833-6.66406,11.75024,11.75024,0,0,1,.59473-3.85938,8.297,8.297,0,0,1,1.7002-2.92383,7.20093,7.20093,0,0,1,2.68652-1.83594,9.54326,9.54326,0,0,1,3.55273-.6289,9.41356,9.41356,0,0,1,3.53516.6289,7.36548,7.36548,0,0,1,2.65234,1.78516,8.0021,8.0021,0,0,1,1.6836,2.80469,10.84175,10.84175,0,0,1,.59472,3.68945v1.4961H95.03784v.30566a3.6656,3.6656,0,0,0,1.05371,2.7373,4.235,4.235,0,0,0,3.09375,1.03711,5.65411,5.65411,0,0,0,2.68653-.5957,6.34145,6.34145,0,0,0,1.9375-1.58008l2.7207,2.958a8.5036,8.5036,0,0,1-2.85645,2.17578A10.401,10.401,0,0,1,99.01538,118.93457Zm-.4082-14.75586a3.44789,3.44789,0,0,0-2.60059,1.00293,3.72757,3.72757,0,0,0-.96875,2.70313v.27148h7.07129v-.27148a3.79707,3.79707,0,0,0-.93457-2.72071A3.36883,3.36883,0,0,0,98.60718,104.17871Zm9.248,10.40332h4.0459v-9.65527h-4.0459v-3.94434h9.07813v4.96387h.23828a9.96668,9.96668,0,0,1,.66309-1.85254,6.0313,6.0313,0,0,1,1.08789-1.59863,4.82152,4.82152,0,0,1,1.61523-1.1045,5.65281,5.65281,0,0,1,2.24414-.4082h1.666v4.624h-3.74024a3.52965,3.52965,0,0,0-2.82226,1.10058,3.97517,3.97517,0,0,0-.95215,2.69336V114.582h5.78027v3.94434h-14.8584Zm28.66114-21.89551v30.53223H125.50073v-3.36621h6.96973V96.05273h-6.96973V92.68652Z" />
</svg>